solid OpenSCAD_Model
  facet normal 0 0 -1
    outer loop
      vertex 0 3.39786 0
      vertex 11.9 5.87701 0
      vertex 11.9 -5.87701 0
    endloop
  endfacet
  facet normal -0 0 -1
    outer loop
      vertex 0 -3.39786 0
      vertex -11.9 -5.87701 0
      vertex -11.9 5.87701 0
    endloop
  endfacet
  facet normal 0 0 -1
    outer loop
      vertex 11.9 -5.87701 0
      vertex 0 -3.39786 0
      vertex 0 3.39786 0
    endloop
  endfacet
  facet normal 0 0 -1
    outer loop
      vertex 0 -3.39786 0
      vertex -11.9 5.87701 0
      vertex 0 3.39786 0
    endloop
  endfacet
  facet normal 0 -0 1
    outer loop
      vertex 11.9 -5.87701 3.8
      vertex 11.9 5.87701 3.8
      vertex 0 3.39786 3.8
    endloop
  endfacet
  facet normal 0 0 1
    outer loop
      vertex -11.9 5.87701 3.8
      vertex -11.9 -5.87701 3.8
      vertex 0 -3.39786 3.8
    endloop
  endfacet
  facet normal 0 0 1
    outer loop
      vertex 0 3.39786 3.8
      vertex 0 -3.39786 3.8
      vertex 11.9 -5.87701 3.8
    endloop
  endfacet
  facet normal 0 0 1
    outer loop
      vertex 0 3.39786 3.8
      vertex -11.9 5.87701 3.8
      vertex 0 -3.39786 3.8
    endloop
  endfacet
  facet normal -0.203953 0.978981 0
    outer loop
      vertex 0 3.39786 0
      vertex 11.9 5.87701 3.8
      vertex 11.9 5.87701 0
    endloop
  endfacet
  facet normal -0.203953 0.978981 0
    outer loop
      vertex 0 3.39786 0
      vertex 0 3.39786 3.8
      vertex 11.9 5.87701 3.8
    endloop
  endfacet
  facet normal 0.203953 0.978981 0
    outer loop
      vertex -11.9 5.87701 0
      vertex 0 3.39786 3.8
      vertex 0 3.39786 0
    endloop
  endfacet
  facet normal 0.203953 0.978981 -0
    outer loop
      vertex -11.9 5.87701 0
      vertex -11.9 5.87701 3.8
      vertex 0 3.39786 3.8
    endloop
  endfacet
  facet normal -1 0 0
    outer loop
      vertex -11.9 -5.87701 0
      vertex -11.9 5.87701 3.8
      vertex -11.9 5.87701 0
    endloop
  endfacet
  facet normal -1 0 0
    outer loop
      vertex -11.9 -5.87701 0
      vertex -11.9 -5.87701 3.8
      vertex -11.9 5.87701 3.8
    endloop
  endfacet
  facet normal 0.203953 -0.978981 0
    outer loop
      vertex 0 -3.39786 0
      vertex -11.9 -5.87701 3.8
      vertex -11.9 -5.87701 0
    endloop
  endfacet
  facet normal 0.203953 -0.978981 0
    outer loop
      vertex 0 -3.39786 0
      vertex 0 -3.39786 3.8
      vertex -11.9 -5.87701 3.8
    endloop
  endfacet
  facet normal -0.203953 -0.978981 0
    outer loop
      vertex 11.9 -5.87701 0
      vertex 0 -3.39786 3.8
      vertex 0 -3.39786 0
    endloop
  endfacet
  facet normal -0.203953 -0.978981 0
    outer loop
      vertex 11.9 -5.87701 0
      vertex 11.9 -5.87701 3.8
      vertex 0 -3.39786 3.8
    endloop
  endfacet
  facet normal 1 0 0
    outer loop
      vertex 11.9 5.87701 0
      vertex 11.9 -5.87701 3.8
      vertex 11.9 -5.87701 0
    endloop
  endfacet
  facet normal 1 0 -0
    outer loop
      vertex 11.9 5.87701 0
      vertex 11.9 5.87701 3.8
      vertex 11.9 -5.87701 3.8
    endloop
  endfacet
endsolid OpenSCAD_Model
